<svg width="152" height="34" viewBox="0 0 152 34" fill="none" xmlns="http://www.w3.org/2000/svg">
<g filter="url(#filter0_d)">
<path d="M12.242 6.592H15.57L17.676 12.702L19.808 6.592H23.11L19.938 14.99L22.278 20.866L27.504 6.54H31.404L24.02 25H20.926L17.676 17.252L14.452 25H11.358L4 6.54H7.848L13.1 20.866L15.388 14.99L12.242 6.592ZM38.227 25.26C36.7536 25.26 35.4796 24.9393 34.405 24.298C33.3476 23.6567 32.5243 22.8073 31.935 21.75C31.3456 20.6753 31.051 19.514 31.051 18.266C31.051 16.9833 31.337 15.8047 31.909 14.73C32.4983 13.638 33.3303 12.7713 34.405 12.13C35.4796 11.4713 36.7623 11.142 38.253 11.142C39.7436 11.142 41.0176 11.4713 42.075 12.13C43.1323 12.7713 43.9383 13.6293 44.493 14.704C45.065 15.7613 45.351 16.9053 45.351 18.136C45.351 18.5867 45.325 18.9767 45.273 19.306H34.743C34.8296 20.3633 35.2196 21.1953 35.913 21.802C36.6236 22.4087 37.4383 22.712 38.357 22.712C39.0503 22.712 39.7003 22.5473 40.307 22.218C40.931 21.8713 41.3556 21.4207 41.581 20.866L44.571 21.698C44.0683 22.738 43.2623 23.596 42.153 24.272C41.0436 24.9307 39.735 25.26 38.227 25.26ZM34.665 17.096H41.789C41.685 16.0733 41.295 15.25 40.619 14.626C39.9603 13.9847 39.1543 13.664 38.201 13.664C37.265 13.664 36.459 13.9847 35.783 14.626C35.1243 15.25 34.7516 16.0733 34.665 17.096ZM56.0014 25.26C54.9614 25.26 54.0341 25.026 53.2194 24.558C52.4048 24.09 51.7634 23.4487 51.2954 22.634V25H48.2534V6.02H51.7374V13.768C52.2228 12.9533 52.8554 12.312 53.6354 11.844C54.4328 11.376 55.3601 11.142 56.4174 11.142C57.5961 11.142 58.6274 11.4713 59.5114 12.13C60.4128 12.7713 61.1148 13.6293 61.6174 14.704C62.1201 15.7787 62.3714 16.9573 62.3714 18.24C62.3714 19.5573 62.0941 20.7447 61.5394 21.802C60.9848 22.8593 60.2221 23.7 59.2514 24.324C58.2981 24.948 57.2148 25.26 56.0014 25.26ZM55.0394 22.296C55.7848 22.296 56.4348 22.114 56.9894 21.75C57.5614 21.386 58.0034 20.9007 58.3154 20.294C58.6448 19.67 58.8094 18.994 58.8094 18.266C58.8094 17.5207 58.6534 16.836 58.3414 16.212C58.0468 15.5707 57.6308 15.0593 57.0934 14.678C56.5561 14.2967 55.9408 14.106 55.2474 14.106C54.4848 14.106 53.7828 14.366 53.1414 14.886C52.5174 15.3887 52.0494 16.0127 51.7374 16.758V20.008C51.9628 20.684 52.4048 21.2387 53.0634 21.672C53.7221 22.088 54.3808 22.296 55.0394 22.296Z" fill="#2196F3"/>
<path d="M76.8479 11.376C76.6919 11.2027 76.3626 10.9773 75.8599 10.7C75.3573 10.4053 74.7506 10.1453 74.0399 9.92C73.3466 9.67733 72.6273 9.556 71.8819 9.556C69.9233 9.556 68.9439 10.2493 68.9439 11.636C68.9439 12.1387 69.0999 12.5373 69.4119 12.832C69.7239 13.1267 70.1919 13.378 70.8159 13.586C71.4399 13.794 72.2199 14.0193 73.1559 14.262C74.3693 14.574 75.4179 14.938 76.3019 15.354C77.2033 15.77 77.8879 16.3247 78.3559 17.018C78.8413 17.694 79.0839 18.5953 79.0839 19.722C79.0839 21.0393 78.7633 22.1053 78.1219 22.92C77.4979 23.7173 76.6659 24.298 75.6259 24.662C74.5859 25.026 73.4593 25.208 72.2459 25.208C70.8593 25.208 69.4813 25 68.1119 24.584C66.7599 24.1507 65.5553 23.5613 64.4979 22.816L66.0839 19.722C66.2399 19.878 66.5173 20.086 66.9159 20.346C67.3146 20.5887 67.7999 20.84 68.3719 21.1C68.9439 21.3427 69.5679 21.5507 70.2439 21.724C70.9199 21.8973 71.6046 21.984 72.2979 21.984C74.2739 21.984 75.2619 21.3513 75.2619 20.086C75.2619 19.5487 75.0626 19.1153 74.6639 18.786C74.2653 18.4567 73.7019 18.1793 72.9739 17.954C72.2633 17.7287 71.4313 17.4773 70.4779 17.2C69.2993 16.8707 68.3199 16.5067 67.5399 16.108C66.7773 15.692 66.2053 15.1807 65.8239 14.574C65.4426 13.95 65.2519 13.1613 65.2519 12.208C65.2519 10.9427 65.5466 9.88533 66.1359 9.036C66.7426 8.16933 67.5573 7.51933 68.5799 7.086C69.6026 6.63533 70.7379 6.41 71.9859 6.41C73.2686 6.41 74.4646 6.618 75.5739 7.034C76.6833 7.45 77.6366 7.92667 78.4339 8.464L76.8479 11.376ZM90.0966 24.298C89.6286 24.506 89.0479 24.714 88.3546 24.922C87.6786 25.13 86.9766 25.234 86.2486 25.234C85.6072 25.234 85.0179 25.1213 84.4806 24.896C83.9432 24.6707 83.5099 24.3153 83.1806 23.83C82.8686 23.3273 82.7126 22.6773 82.7126 21.88V14.054H80.9186V11.376H82.7126V6.956H86.1966V11.376H89.0566V14.054H86.1966V20.71C86.1966 21.178 86.3179 21.516 86.5606 21.724C86.8206 21.932 87.1326 22.036 87.4966 22.036C87.8606 22.036 88.2159 21.9753 88.5626 21.854C88.9092 21.7327 89.1866 21.6287 89.3946 21.542L90.0966 24.298ZM92.5611 19.904V11.376H96.0451V19.15C96.0451 21.2473 96.7991 22.296 98.3071 22.296C98.9831 22.296 99.6331 22.0967 100.257 21.698C100.898 21.282 101.418 20.658 101.817 19.826V11.376H105.301V21.1C105.301 21.4813 105.362 21.75 105.483 21.906C105.604 22.0447 105.821 22.1313 106.133 22.166V25C105.786 25.0693 105.492 25.1127 105.249 25.13C105.024 25.1473 104.816 25.156 104.625 25.156C104.001 25.156 103.49 25.0173 103.091 24.74C102.71 24.4453 102.484 24.0467 102.415 23.544L102.337 22.452C101.73 23.388 100.95 24.09 99.9971 24.558C99.0437 25.026 97.9951 25.26 96.8511 25.26C95.4471 25.26 94.3811 24.8093 93.6531 23.908C92.9251 22.9893 92.5611 21.6547 92.5611 19.904ZM108.711 18.188C108.711 16.888 108.971 15.7007 109.491 14.626C110.011 13.5513 110.731 12.702 111.649 12.078C112.568 11.454 113.617 11.142 114.795 11.142C115.801 11.142 116.702 11.3933 117.499 11.896C118.314 12.3813 118.947 13.0053 119.397 13.768V6.02H122.881V21.1C122.881 21.4813 122.942 21.75 123.063 21.906C123.185 22.0447 123.393 22.1313 123.687 22.166V25C123.063 25.1213 122.569 25.182 122.205 25.182C121.581 25.182 121.061 25.026 120.645 24.714C120.247 24.402 120.021 23.9947 119.969 23.492L119.917 22.634C119.415 23.4833 118.73 24.1333 117.863 24.584C117.014 25.0347 116.121 25.26 115.185 25.26C113.92 25.26 112.802 24.948 111.831 24.324C110.861 23.6827 110.098 22.8333 109.543 21.776C108.989 20.7013 108.711 19.5053 108.711 18.188ZM119.397 20.008V16.758C119.12 15.9953 118.643 15.3627 117.967 14.86C117.291 14.3573 116.598 14.106 115.887 14.106C115.177 14.106 114.553 14.3053 114.015 14.704C113.478 15.0853 113.062 15.5967 112.767 16.238C112.473 16.862 112.325 17.538 112.325 18.266C112.325 19.0113 112.49 19.696 112.819 20.32C113.149 20.9267 113.591 21.412 114.145 21.776C114.717 22.1227 115.367 22.296 116.095 22.296C116.754 22.296 117.404 22.0793 118.045 21.646C118.704 21.2127 119.155 20.6667 119.397 20.008ZM127.081 9.478V6.02H130.565V9.478H127.081ZM127.081 25V11.376H130.565V25H127.081ZM140.78 25.26C139.289 25.26 138.007 24.9393 136.932 24.298C135.875 23.6393 135.06 22.7727 134.488 21.698C133.916 20.6233 133.63 19.462 133.63 18.214C133.63 16.9487 133.916 15.7787 134.488 14.704C135.077 13.6293 135.901 12.7713 136.958 12.13C138.033 11.4713 139.307 11.142 140.78 11.142C142.253 11.142 143.519 11.4713 144.576 12.13C145.651 12.7713 146.474 13.6293 147.046 14.704C147.618 15.7787 147.904 16.9487 147.904 18.214C147.904 19.462 147.618 20.6233 147.046 21.698C146.474 22.7727 145.651 23.6393 144.576 24.298C143.519 24.9393 142.253 25.26 140.78 25.26ZM137.218 18.214C137.218 19.0113 137.374 19.722 137.686 20.346C137.998 20.9527 138.423 21.4293 138.96 21.776C139.497 22.1227 140.104 22.296 140.78 22.296C141.439 22.296 142.037 22.1227 142.574 21.776C143.111 21.412 143.536 20.9267 143.848 20.32C144.177 19.696 144.342 18.9853 144.342 18.188C144.342 17.408 144.177 16.7147 143.848 16.108C143.536 15.484 143.111 14.9987 142.574 14.652C142.037 14.288 141.439 14.106 140.78 14.106C140.104 14.106 139.497 14.288 138.96 14.652C138.423 14.9987 137.998 15.484 137.686 16.108C137.374 16.7147 137.218 17.4167 137.218 18.214Z" fill="black"/>
</g>
<defs>
<filter id="filter0_d" x="0" y="6.02002" width="151.904" height="27.24" filterUnits="userSpaceOnUse" color-interpolation-filters="sRGB">
<feFlood flood-opacity="0" result="BackgroundImageFix"/>
<feColorMatrix in="SourceAlpha" type="matrix" values="0 0 0 0 0 0 0 0 0 0 0 0 0 0 0 0 0 0 127 0"/>
<feOffset dy="4"/>
<feGaussianBlur stdDeviation="2"/>
<feColorMatrix type="matrix" values="0 0 0 0 0 0 0 0 0 0 0 0 0 0 0 0 0 0 0.25 0"/>
<feBlend mode="normal" in2="BackgroundImageFix" result="effect1_dropShadow"/>
<feBlend mode="normal" in="SourceGraphic" in2="effect1_dropShadow" result="shape"/>
</filter>
</defs>
</svg>
